<?xml version="1.0" standalone="no"?>
<!DOCTYPE svg PUBLIC "-//W3C//DTD SVG 20010904//EN"
 "http://www.w3.org/TR/2001/REC-SVG-20010904/DTD/svg10.dtd">
<svg version="1.0" xmlns="http://www.w3.org/2000/svg"
 width="1112.000000pt" height="365.000000pt" viewBox="0 0 1112.000000 365.000000"
 preserveAspectRatio="xMidYMid meet">

<g transform="translate(0.000000,365.000000) scale(0.100000,-0.100000)"
fill="#000000" stroke="none">
<path d="M50 3471 l0 -108 93 -6 c220 -12 473 -144 621 -323 64 -77 131 -194
163 -282 14 -37 71 -299 128 -582 57 -283 109 -533 116 -555 22 -76 62 -140
134 -212 84 -84 181 -136 285 -153 41 -6 396 -10 963 -10 l897 0 0 105 0 104
-923 3 -922 3 -55 26 c-76 36 -112 68 -147 136 -27 50 -46 132 -133 567 -56
281 -111 539 -122 575 -110 358 -382 641 -726 754 -109 36 -264 67 -334 67
l-38 0 0 -109z"/>
<path d="M8943 3281 c-65 -51 -103 -97 -103 -125 0 -36 92 -137 156 -172 32
-17 32 -17 84 16 49 31 130 120 130 141 0 21 -31 66 -72 105 -92 88 -122 93
-195 35z"/>
<path d="M9400 3271 c0 -5 41 -54 91 -110 l91 -101 241 -2 242 -3 3 -736 2
-736 113 -23 c61 -12 126 -26 142 -31 17 -4 44 -9 60 -11 l30 -3 0 770 0 770
302 5 302 5 -93 105 -92 105 -717 3 c-418 1 -717 -2 -717 -7z"/>
<path d="M7828 2938 l-3 -133 -102 -3 c-57 -1 -103 -4 -103 -5 0 -1 15 -38 34
-82 l33 -80 64 -3 c35 -2 67 -8 71 -15 4 -7 8 -181 8 -387 0 -371 0 -376 23
-418 59 -111 220 -234 364 -277 68 -21 103 -19 159 11 71 37 234 165 234 183
0 4 -13 20 -30 38 l-29 31 -80 -41 c-134 -68 -232 -62 -281 18 -44 71 -52 142
-57 483 -3 177 -2 334 1 347 l6 25 191 0 c105 0 189 4 187 8 -1 5 -18 43 -37
85 l-34 77 -156 2 -156 3 -3 95 c-2 52 -6 98 -10 102 -6 6 -265 68 -284 68 -4
0 -9 -60 -10 -132z"/>
<path d="M1440 3041 c0 -8 34 -183 45 -228 l5 -23 265 0 265 0 0 130 0 130
-290 0 c-163 0 -290 -4 -290 -9z"/>
<path d="M2260 2920 l0 -130 180 0 180 0 0 130 0 130 -180 0 -180 0 0 -130z"/>
<path d="M2870 2920 l0 -130 270 0 270 0 4 23 c8 37 36 214 36 226 0 8 -82 11
-290 11 l-290 0 0 -130z"/>
<path d="M5155 2811 c-87 -31 -118 -52 -196 -130 -85 -85 -121 -147 -139 -239
-33 -168 29 -282 249 -456 60 -48 71 -60 57 -68 -9 -5 -71 -20 -138 -34 -67
-14 -134 -32 -150 -40 -36 -19 -33 -26 87 -212 l95 -147 -110 -110 c-61 -61
-110 -116 -110 -123 0 -23 70 -90 154 -146 109 -73 214 -121 323 -147 278 -67
560 63 677 311 56 119 35 253 -61 380 -25 33 -54 65 -66 72 -24 12 -117 1
-307 -37 -234 -47 -276 -55 -342 -57 -68 -3 -94 6 -68 23 8 5 67 25 130 45
264 81 410 154 508 252 137 138 159 301 66 500 -13 29 -22 58 -19 63 4 5 78 9
166 9 87 0 159 3 159 7 0 5 -15 43 -32 85 l-33 78 -227 0 -226 0 -136 70
c-126 65 -139 70 -198 70 -35 -1 -85 -9 -113 -19z m339 -222 c19 -13 49 -46
67 -73 33 -49 34 -55 34 -146 0 -89 -2 -99 -34 -158 -58 -106 -188 -202 -276
-202 -82 0 -167 83 -181 177 -21 144 44 286 178 386 70 52 151 58 212 16z
m296 -1114 c0 -95 -154 -217 -340 -270 -99 -29 -291 -27 -388 3 -40 13 -75 29
-78 37 -5 13 77 126 96 133 5 2 23 -4 41 -14 75 -38 212 -14 514 91 72 25 136
45 143 45 6 0 12 -11 12 -25z"/>
<path d="M6732 2804 c-93 -20 -157 -59 -247 -149 -150 -149 -208 -318 -184
-532 15 -133 65 -229 177 -342 99 -98 208 -176 320 -229 75 -36 79 -37 197
-37 l120 0 106 51 c103 50 289 167 289 182 0 4 -42 52 -92 106 l-93 99 -90
-68 c-49 -38 -135 -90 -190 -117 -90 -43 -107 -48 -170 -48 -78 0 -127 19
-184 67 -22 19 -32 35 -29 45 4 8 104 86 225 174 370 269 563 413 563 422 0
32 -322 264 -466 335 -58 29 -157 60 -182 56 -4 -1 -36 -7 -70 -15z m328 -268
c36 -15 76 -35 88 -45 30 -22 32 -21 -132 -131 -70 -47 -190 -129 -269 -182
-78 -53 -146 -93 -150 -89 -12 12 9 174 29 231 75 215 237 296 434 216z"/>
<path d="M8860 2196 c0 -337 4 -607 9 -610 22 -14 294 -67 302 -59 5 5 8 266
7 608 l-3 599 -80 18 c-44 10 -108 25 -142 33 -34 8 -69 15 -78 15 -13 0 -15
-66 -15 -604z"/>
<path d="M1540 2533 c0 -5 10 -63 22 -130 l23 -123 218 0 217 0 0 130 0 130
-240 0 c-132 0 -240 -3 -240 -7z"/>
<path d="M2260 2410 l0 -130 180 0 180 0 0 130 0 130 -180 0 -180 0 0 -130z"/>
<path d="M2870 2410 l0 -130 230 0 230 0 4 23 c8 37 36 214 36 226 0 8 -71 11
-250 11 l-250 0 0 -130z"/>
<path d="M1656 1913 c13 -65 24 -124 24 -130 0 -10 41 -13 170 -13 l170 0 0
130 0 130 -193 0 -194 0 23 -117z"/>
<path d="M2260 1900 l0 -130 180 0 180 0 0 130 0 130 -180 0 -180 0 0 -130z"/>
<path d="M2870 1900 l0 -130 190 0 189 0 5 33 c3 17 12 71 21 118 8 47 15 91
15 97 0 9 -56 12 -210 12 l-210 0 0 -130z"/>
<path d="M774 900 c-119 -39 -220 -132 -265 -247 -19 -47 -23 -77 -24 -158 0
-93 2 -105 34 -172 81 -174 270 -276 452 -244 229 40 387 258 350 483 -23 139
-115 259 -244 319 -94 43 -208 50 -303 19z"/>
<path d="M2928 909 c-111 -26 -235 -127 -283 -230 -59 -128 -55 -254 12 -382
105 -200 352 -281 553 -181 82 42 170 131 208 211 24 52 27 70 27 168 0 103
-2 114 -31 175 -57 119 -142 193 -262 230 -67 21 -159 25 -224 9z"/>
</g>
</svg>
