<?xml version="1.0" standalone="no"?>
<!DOCTYPE svg PUBLIC "-//W3C//DTD SVG 20010904//EN"
 "http://www.w3.org/TR/2001/REC-SVG-20010904/DTD/svg10.dtd">
<svg version="1.0" xmlns="http://www.w3.org/2000/svg"
 width="672.000000pt" height="497.000000pt" viewBox="0 0 672.000000 497.000000"
 preserveAspectRatio="xMidYMid meet">

<g transform="translate(0.000000,497.000000) scale(0.100000,-0.100000)"
fill="#000000" stroke="none">
<path d="M4205 4916 c-84 -27 -125 -76 -125 -150 0 -85 55 -130 160 -130 36 0
76 6 90 13 117 62 131 204 25 259 -35 18 -108 22 -150 8z"/>
<path d="M4547 4923 c-3 -5 -12 -34 -20 -65 l-15 -58 134 0 c110 0 134 -3 134
-14 0 -12 -98 -486 -179 -868 l-19 -88 183 0 c181 0 183 0 188 23 3 12 27 123
52 247 25 124 68 330 96 457 27 128 49 235 49 238 0 3 62 5 138 5 l139 0 11
51 c7 28 12 57 12 65 0 12 -67 14 -449 14 -248 0 -452 -3 -454 -7z"/>
<path d="M3591 4729 c-72 -79 -136 -120 -227 -145 -59 -16 -63 -18 -69 -53 -3
-20 -9 -46 -12 -58 -5 -22 -3 -23 61 -23 36 0 66 -2 66 -4 0 -2 -18 -89 -40
-195 -59 -283 -52 -359 36 -405 35 -19 56 -21 191 -20 84 0 155 3 159 6 3 3
11 31 18 61 l13 55 -45 5 c-24 3 -51 12 -60 21 -18 18 -13 60 42 316 l32 155
70 5 c67 5 69 6 75 35 4 17 7 42 8 58 1 27 0 27 -63 27 l-64 0 24 113 c13 61
24 113 24 115 0 1 -39 2 -87 2 l-88 -1 -64 -70z"/>
<path d="M1620 4570 c-163 -34 -283 -218 -297 -455 -7 -117 12 -190 62 -233
90 -79 257 -67 356 25 27 25 52 44 55 41 2 -3 -4 -47 -15 -97 -38 -172 -65
-191 -278 -191 l-141 0 -16 -52 c-8 -28 -12 -56 -9 -61 10 -16 397 -1 466 17
147 40 237 108 291 219 29 59 47 130 101 392 37 176 69 337 72 358 l6 37 -134
0 -134 0 -38 -55 c-21 -30 -42 -55 -47 -55 -4 0 -17 15 -28 34 -37 62 -164 98
-272 76z m235 -175 c32 -31 31 -50 -5 -210 -27 -119 -32 -133 -64 -162 -62
-57 -126 -35 -126 43 0 60 30 204 54 257 42 95 93 121 141 72z"/>
<path d="M2740 4570 c-277 -35 -423 -185 -424 -435 0 -208 135 -315 399 -315
105 0 193 12 287 40 77 23 90 38 107 120 7 30 14 65 17 77 l6 23 -140 0 -140
0 -6 -25 c-9 -35 -85 -112 -119 -120 -22 -6 -34 -3 -50 14 -19 19 -22 33 -22
109 0 48 4 95 7 105 7 15 28 17 248 17 l241 0 21 46 c25 58 34 146 19 201 -15
56 -74 106 -149 126 -71 20 -216 28 -302 17z m136 -124 c15 -12 19 -26 18 -73
0 -32 -3 -70 -7 -85 l-7 -28 -99 0 -100 0 9 30 c14 47 62 130 88 151 29 23 71
25 98 5z"/>
<path d="M3962 4223 c-40 -192 -75 -358 -78 -371 l-6 -22 172 2 173 3 78 355
c43 195 78 361 79 368 0 9 -41 12 -173 12 l-172 0 -73 -347z"/>
<path d="M2140 3005 c0 -316 7 -335 119 -335 47 0 51 2 51 24 0 19 -8 27 -34
36 -19 6 -37 18 -40 26 -3 9 -6 123 -6 255 l0 239 -45 0 -45 0 0 -245z"/>
<path d="M3800 3005 c0 -316 7 -335 119 -335 47 0 51 2 51 24 0 19 -8 27 -34
36 -19 6 -37 18 -40 26 -3 9 -6 123 -6 255 l0 239 -45 0 -45 0 0 -245z"/>
<path d="M120 3214 c0 -6 113 -254 128 -281 9 -14 12 -11 26 21 22 52 21 56
-21 168 l-38 98 -47 0 c-27 0 -48 -2 -48 -6z"/>
<path d="M411 3198 c-5 -13 -39 -94 -75 -182 -65 -157 -66 -159 -66 -252 l0
-94 45 0 45 0 0 115 0 115 80 160 80 160 -50 0 c-43 0 -52 -3 -59 -22z"/>
<path d="M6340 3102 c0 -66 3 -153 6 -195 7 -75 8 -77 34 -77 l27 0 6 107 c4
58 7 146 7 195 l0 88 -40 0 -40 0 0 -118z"/>
<path d="M6560 3102 c0 -66 3 -153 6 -195 7 -75 8 -77 34 -77 l27 0 6 107 c4
58 7 146 7 195 l0 88 -40 0 -40 0 0 -118z"/>
<path d="M4718 3153 c-3 -55 -4 -58 -30 -61 -24 -3 -28 -8 -28 -33 0 -25 4
-29 29 -29 l30 0 3 -154 c3 -148 4 -156 27 -180 21 -22 33 -26 83 -26 55 0 58
1 58 25 0 19 -7 26 -32 33 -49 12 -58 40 -58 180 l0 122 35 0 c32 0 35 2 35
29 0 26 -4 30 -32 33 -33 3 -33 4 -36 61 l-3 57 -39 0 -39 0 -3 -57z"/>
<path d="M1810 3093 c-91 -12 -90 -12 -90 -52 l0 -38 53 5 c28 2 53 6 55 7 2
2 2 20 0 42 -2 27 -7 38 -18 36z"/>
<path d="M3480 3093 c-31 -5 -110 -33 -110 -39 0 -3 7 -16 16 -29 14 -22 18
-23 37 -10 41 26 90 29 117 7 23 -19 25 -27 28 -134 l4 -114 -31 -27 c-53 -44
-34 -92 20 -48 23 19 24 19 52 -5 35 -30 41 -30 55 0 8 17 7 27 -1 35 -7 7
-13 67 -17 149 -6 174 -21 202 -110 214 -19 3 -46 3 -60 1z"/>
<path d="M4337 3079 c-63 -33 -86 -113 -46 -163 18 -22 86 -66 104 -66 3 0 5
18 5 40 0 29 -5 42 -20 50 -12 6 -20 21 -20 35 0 14 9 33 20 42 23 20 28 83 8
83 -7 -1 -30 -10 -51 -21z"/>
<path d="M4430 3066 c0 -29 4 -35 28 -40 15 -4 35 -9 44 -12 12 -3 22 4 32 25
l15 29 -39 16 c-64 25 -80 22 -80 -18z"/>
<path d="M5710 3093 c-91 -12 -90 -12 -90 -52 l0 -38 53 5 c28 2 53 6 55 7 2
2 2 20 0 42 -2 27 -7 38 -18 36z"/>
<path d="M5940 3078 c-66 -34 -103 -93 -108 -172 -5 -77 9 -126 51 -173 58
-66 154 -83 228 -41 45 25 52 37 33 63 -13 18 -16 18 -49 2 -67 -32 -141 -14
-170 43 -35 67 -7 192 49 218 21 9 26 19 26 47 0 19 -4 35 -8 35 -4 0 -28 -10
-52 -22z"/>
<path d="M730 3079 c-69 -28 -110 -100 -110 -194 0 -101 30 -159 102 -196 55
-28 68 -25 68 14 0 26 -6 36 -23 44 -74 34 -76 220 -3 268 18 12 26 26 26 46
0 32 -15 36 -60 18z"/>
<path d="M820 3064 c0 -21 10 -37 35 -57 35 -28 55 -76 55 -132 -1 -45 -35
-113 -65 -127 -19 -9 -25 -19 -25 -45 0 -36 10 -40 57 -22 173 65 156 377 -22
406 -33 5 -35 4 -35 -23z"/>
<path d="M1122 2919 l3 -170 42 -40 c34 -32 50 -39 82 -39 60 0 91 15 91 44 0
23 -3 24 -46 23 -37 -2 -49 2 -65 22 -17 21 -19 40 -19 177 l0 154 -46 0 -45
0 3 -171z"/>
<path d="M1382 2883 l3 -208 43 -3 42 -3 0 210 0 211 -45 0 -45 0 2 -207z"/>
<path d="M1600 2880 l0 -210 45 0 45 0 0 188 c0 103 -3 197 -6 210 -5 18 -13
22 -45 22 l-39 0 0 -210z"/>
<path d="M2520 3079 c-69 -28 -110 -100 -110 -194 0 -101 30 -159 102 -196 55
-28 68 -25 68 14 0 26 -6 36 -23 44 -74 34 -76 220 -3 268 18 12 26 26 26 46
0 32 -15 36 -60 18z"/>
<path d="M2610 3064 c0 -21 10 -37 35 -57 35 -28 55 -76 55 -132 -1 -45 -35
-113 -65 -127 -19 -9 -25 -19 -25 -45 0 -36 10 -40 57 -22 173 65 156 377 -22
406 -33 5 -35 4 -35 -23z"/>
<path d="M3015 3078 c-47 -26 -86 -74 -101 -126 -33 -112 18 -237 109 -271 47
-18 57 -14 57 22 0 25 -6 37 -25 47 -75 40 -75 227 0 262 19 9 25 19 25 45 0
28 -4 33 -22 33 -13 0 -32 -6 -43 -12z"/>
<path d="M3110 3060 c0 -20 6 -32 18 -36 9 -3 29 -12 43 -20 24 -12 28 -12 44
6 21 23 10 41 -36 66 -47 24 -69 19 -69 -16z"/>
<path d="M5095 3071 c-17 -10 -43 -32 -58 -50 -85 -102 -47 -287 70 -337 51
-22 63 -18 63 19 0 26 -6 36 -25 45 -76 35 -82 202 -9 260 42 33 48 82 12 82
-13 0 -37 -8 -53 -19z"/>
<path d="M5200 3061 c0 -20 8 -34 25 -45 37 -24 58 -74 58 -137 0 -62 -29
-123 -63 -134 -25 -8 -29 -75 -5 -75 22 0 87 34 106 56 93 106 65 289 -52 350
-46 23 -69 19 -69 -15z"/>
<path d="M5500 2880 l0 -210 45 0 45 0 0 188 c0 103 -3 197 -6 210 -5 18 -13
22 -45 22 l-39 0 0 -210z"/>
<path d="M6030 3061 c0 -21 6 -32 20 -36 26 -8 70 -62 70 -86 0 -17 -8 -19
-85 -19 l-85 0 0 -35 0 -35 125 0 c145 0 145 0 126 86 -18 81 -90 154 -151
154 -16 0 -20 -6 -20 -29z"/>
<path d="M3435 2915 c-22 -8 -53 -28 -69 -46 -26 -29 -28 -37 -24 -87 4 -47
10 -60 37 -84 19 -17 43 -28 61 -28 26 0 30 4 30 26 0 16 -10 34 -25 46 -18
14 -25 29 -25 54 0 42 27 71 74 80 29 5 36 11 36 30 0 20 -5 24 -27 24 -16 -1
-46 -7 -68 -15z"/>
<path d="M4430 2878 c0 -23 8 -39 33 -59 26 -23 30 -31 21 -46 -6 -10 -20 -22
-32 -28 -16 -7 -22 -19 -22 -42 0 -37 6 -39 54 -19 102 42 101 169 -1 211 -49
21 -53 19 -53 -17z"/>
<path d="M3148 2752 c-33 -15 -38 -22 -38 -49 0 -37 14 -42 59 -19 43 22 54
41 41 65 -12 24 -13 24 -62 3z"/>
<path d="M6342 2758 c-7 -7 -12 -24 -12 -38 0 -14 5 -31 12 -38 7 -7 24 -12
38 -12 14 0 31 5 38 12 7 7 12 24 12 38 0 14 -5 31 -12 38 -7 7 -24 12 -38 12
-14 0 -31 -5 -38 -12z"/>
<path d="M6562 2758 c-7 -7 -12 -24 -12 -38 0 -14 5 -31 12 -38 7 -7 24 -12
38 -12 14 0 31 5 38 12 7 7 12 24 12 38 0 14 -5 31 -12 38 -7 7 -24 12 -38 12
-14 0 -31 -5 -38 -12z"/>
<path d="M4295 2737 c-8 -12 -15 -25 -15 -29 0 -13 58 -38 90 -38 26 0 30 3
30 29 0 25 -5 30 -45 44 -44 14 -46 14 -60 -6z"/>
<path d="M2350 2151 l0 -59 43 -7 c227 -34 378 -137 466 -317 35 -74 47 -120
106 -413 77 -384 93 -431 178 -494 97 -73 80 -71 717 -71 l570 0 0 60 0 59
-567 3 c-565 3 -568 3 -610 25 -47 26 -77 60 -92 106 -6 18 -40 178 -76 357
-60 296 -70 333 -110 415 -94 195 -250 321 -461 375 -43 11 -97 20 -121 20
l-43 0 0 -59z"/>
<path d="M3200 1883 c0 -7 11 -57 25 -120 5 -23 8 -23 165 -23 l160 0 0 75 0
75 -175 0 c-96 0 -175 -3 -175 -7z"/>
<path d="M3700 1815 l0 -75 110 0 110 0 0 75 0 75 -110 0 -110 0 0 -75z"/>
<path d="M4070 1815 l0 -75 167 2 167 3 8 45 c4 25 9 57 12 73 l6 27 -180 0
-180 0 0 -75z"/>
<path d="M3263 1558 c3 -13 11 -49 17 -80 l11 -58 130 0 129 0 0 80 0 80 -146
0 -146 0 5 -22z"/>
<path d="M3700 1500 l0 -80 110 0 110 0 0 80 0 80 -110 0 -110 0 0 -80z"/>
<path d="M4070 1500 l0 -80 139 0 c156 0 144 -6 156 80 4 25 9 53 11 63 5 16
-7 17 -150 17 l-156 0 0 -80z"/>
<path d="M3325 1238 c3 -18 9 -53 13 -78 l8 -45 102 -3 102 -3 0 81 0 80 -115
0 -116 0 6 -32z"/>
<path d="M3700 1190 l0 -80 110 0 110 0 0 80 0 80 -110 0 -110 0 0 -80z"/>
<path d="M4070 1190 l0 -81 117 3 118 3 7 50 c4 28 9 62 12 78 l6 27 -130 0
-130 0 0 -80z"/>
<path d="M2798 577 c-26 -8 -63 -26 -83 -41 -194 -149 -90 -458 155 -458 97 0
178 46 222 128 36 67 44 129 24 196 -39 134 -182 213 -318 175z"/>
<path d="M4098 577 c-159 -45 -231 -222 -150 -371 96 -177 360 -171 448 11 99
201 -83 420 -298 360z"/>
</g>
</svg>
